<mxfile host="app.diagrams.net" agent="Mozilla/5.0 (Macintosh; Intel Mac OS X 10_15_7) AppleWebKit/537.36 (KHTML, like Gecko) Chrome/131.0.0.0 Safari/537.36" version="24.8.8">
  <diagram id="C5RBs43oDa-KdzZeNtuy" name="Page-1">
    <mxGraphModel dx="1304" dy="1792" grid="1" gridSize="40" guides="1" tooltips="1" connect="1" arrows="1" fold="1" page="1" pageScale="1" pageWidth="827" pageHeight="1169" math="0" shadow="0">
      <root>
        <mxCell id="WIyWlLk6GJQsqaUBKTNV-0" />
        <mxCell id="WIyWlLk6GJQsqaUBKTNV-1" parent="WIyWlLk6GJQsqaUBKTNV-0" />
        <mxCell id="WIyWlLk6GJQsqaUBKTNV-3" value="点击选品" style="rounded=1;whiteSpace=wrap;html=1;fontSize=12;glass=0;strokeWidth=1;shadow=0;" parent="WIyWlLk6GJQsqaUBKTNV-1" vertex="1">
          <mxGeometry x="160" y="50" width="120" height="40" as="geometry" />
        </mxCell>
        <mxCell id="1DegyCjumlG17n1cPVI7-16" value="" style="edgeStyle=none;rounded=0;orthogonalLoop=1;jettySize=auto;html=1;" edge="1" parent="WIyWlLk6GJQsqaUBKTNV-1" source="WIyWlLk6GJQsqaUBKTNV-7" target="WIyWlLk6GJQsqaUBKTNV-12">
          <mxGeometry relative="1" as="geometry" />
        </mxCell>
        <mxCell id="WIyWlLk6GJQsqaUBKTNV-7" value="&lt;div&gt;同步执行&lt;/div&gt;getTagData(0)&lt;div&gt;getTagData(1)&lt;/div&gt;&lt;div&gt;&lt;br&gt;&lt;/div&gt;&lt;div&gt;GetUserMatchGoodsPost()&lt;/div&gt;&lt;div&gt;返回后端定义的map数据&lt;/div&gt;" style="rounded=1;whiteSpace=wrap;html=1;fontSize=12;glass=0;strokeWidth=1;shadow=0;" parent="WIyWlLk6GJQsqaUBKTNV-1" vertex="1">
          <mxGeometry x="121.25" y="140" width="197.5" height="150" as="geometry" />
        </mxCell>
        <mxCell id="WIyWlLk6GJQsqaUBKTNV-12" value="changeTagData(-1)&lt;div&gt;&lt;br&gt;&lt;/div&gt;&lt;div&gt;GetUserMatchGoodsPost()&lt;/div&gt;&lt;div&gt;返回商品类别,以及聚合数据&lt;/div&gt;" style="rounded=1;whiteSpace=wrap;html=1;fontSize=12;glass=0;strokeWidth=1;shadow=0;" parent="WIyWlLk6GJQsqaUBKTNV-1" vertex="1">
          <mxGeometry x="140" y="350" width="160" height="90" as="geometry" />
        </mxCell>
        <mxCell id="1DegyCjumlG17n1cPVI7-0" value="" style="rounded=0;html=1;jettySize=auto;orthogonalLoop=1;fontSize=11;endArrow=block;endFill=0;endSize=8;strokeWidth=1;shadow=0;labelBackgroundColor=none;edgeStyle=orthogonalEdgeStyle;" edge="1" parent="WIyWlLk6GJQsqaUBKTNV-1" source="1DegyCjumlG17n1cPVI7-1">
          <mxGeometry relative="1" as="geometry">
            <mxPoint x="620" y="140.00000000000023" as="targetPoint" />
          </mxGeometry>
        </mxCell>
        <mxCell id="1DegyCjumlG17n1cPVI7-1" value="GetUserMatchGoods(c *gin.Context)&lt;div&gt;获取商品信息&lt;/div&gt;" style="rounded=1;whiteSpace=wrap;html=1;fontSize=12;glass=0;strokeWidth=1;shadow=0;" vertex="1" parent="WIyWlLk6GJQsqaUBKTNV-1">
          <mxGeometry x="515" y="50" width="210" height="60" as="geometry" />
        </mxCell>
        <mxCell id="1DegyCjumlG17n1cPVI7-28" value="" style="edgeStyle=none;rounded=0;orthogonalLoop=1;jettySize=auto;html=1;" edge="1" parent="WIyWlLk6GJQsqaUBKTNV-1" source="1DegyCjumlG17n1cPVI7-9" target="1DegyCjumlG17n1cPVI7-26">
          <mxGeometry relative="1" as="geometry" />
        </mxCell>
        <mxCell id="1DegyCjumlG17n1cPVI7-9" value="DayType&amp;nbsp; 不为7 就是30&amp;nbsp;" style="rounded=1;whiteSpace=wrap;html=1;fontSize=12;glass=0;strokeWidth=1;shadow=0;" vertex="1" parent="WIyWlLk6GJQsqaUBKTNV-1">
          <mxGeometry x="540" y="400" width="160" height="40" as="geometry" />
        </mxCell>
        <mxCell id="1DegyCjumlG17n1cPVI7-30" value="" style="edgeStyle=none;rounded=0;orthogonalLoop=1;jettySize=auto;html=1;entryX=0.5;entryY=0;entryDx=0;entryDy=0;" edge="1" parent="WIyWlLk6GJQsqaUBKTNV-1" source="1DegyCjumlG17n1cPVI7-10" target="1DegyCjumlG17n1cPVI7-9">
          <mxGeometry relative="1" as="geometry">
            <mxPoint x="620" y="390" as="targetPoint" />
          </mxGeometry>
        </mxCell>
        <mxCell id="1DegyCjumlG17n1cPVI7-10" value="从缓存中获取&lt;br&gt;//成功后直接返回被注释&amp;nbsp;&lt;div&gt;没有用&lt;/div&gt;" style="rounded=1;whiteSpace=wrap;html=1;fontSize=12;glass=0;strokeWidth=1;shadow=0;" vertex="1" parent="WIyWlLk6GJQsqaUBKTNV-1">
          <mxGeometry x="543.75" y="290" width="152.5" height="70" as="geometry" />
        </mxCell>
        <mxCell id="1DegyCjumlG17n1cPVI7-12" value="" style="endArrow=classic;html=1;rounded=0;exitX=0.5;exitY=1;exitDx=0;exitDy=0;entryX=0.5;entryY=0;entryDx=0;entryDy=0;" edge="1" parent="WIyWlLk6GJQsqaUBKTNV-1" source="WIyWlLk6GJQsqaUBKTNV-3" target="WIyWlLk6GJQsqaUBKTNV-7">
          <mxGeometry width="50" height="50" relative="1" as="geometry">
            <mxPoint x="350" y="190" as="sourcePoint" />
            <mxPoint x="260" y="230" as="targetPoint" />
          </mxGeometry>
        </mxCell>
        <mxCell id="1DegyCjumlG17n1cPVI7-17" value="web" style="whiteSpace=wrap;html=1;" vertex="1" parent="WIyWlLk6GJQsqaUBKTNV-1">
          <mxGeometry x="160" y="-40" width="120" height="60" as="geometry" />
        </mxCell>
        <mxCell id="1DegyCjumlG17n1cPVI7-24" style="edgeStyle=none;rounded=0;orthogonalLoop=1;jettySize=auto;html=1;entryX=0.5;entryY=0;entryDx=0;entryDy=0;" edge="1" parent="WIyWlLk6GJQsqaUBKTNV-1">
          <mxGeometry relative="1" as="geometry">
            <mxPoint x="620" y="240" as="sourcePoint" />
            <mxPoint x="620" y="290" as="targetPoint" />
          </mxGeometry>
        </mxCell>
        <mxCell id="1DegyCjumlG17n1cPVI7-46" value="" style="edgeStyle=none;rounded=0;orthogonalLoop=1;jettySize=auto;html=1;" edge="1" parent="WIyWlLk6GJQsqaUBKTNV-1" source="1DegyCjumlG17n1cPVI7-26" target="1DegyCjumlG17n1cPVI7-33">
          <mxGeometry relative="1" as="geometry" />
        </mxCell>
        <mxCell id="1DegyCjumlG17n1cPVI7-26" value="获取用户id&lt;div&gt;var userIds, err2 = goodsService.GetUserIdByMatchGoods(req)&lt;/div&gt;&lt;div&gt;&lt;br&gt;&lt;/div&gt;&lt;div&gt;&lt;div&gt;&lt;span style=&quot;white-space: normal;&quot;&gt;&lt;span style=&quot;white-space:pre&quot;&gt;&#x9;&lt;/span&gt;if req.UserLevel == 0 &amp;amp;&amp;amp; req.Kw == &quot;&quot;&amp;nbsp;&lt;/span&gt;&lt;/div&gt;&lt;div&gt;&lt;span style=&quot;white-space: normal;&quot;&gt;&lt;span style=&quot;white-space:pre&quot;&gt;&#x9;&#x9;&lt;/span&gt;return userIds, ni&lt;/span&gt;&lt;/div&gt;&lt;/div&gt;&lt;div&gt;&lt;span style=&quot;white-space: normal;&quot;&gt;返回 []&lt;/span&gt;&lt;/div&gt;" style="rounded=1;whiteSpace=wrap;html=1;" vertex="1" parent="WIyWlLk6GJQsqaUBKTNV-1">
          <mxGeometry x="480" y="470" width="280" height="125" as="geometry" />
        </mxCell>
        <mxCell id="1DegyCjumlG17n1cPVI7-27" style="edgeStyle=none;rounded=0;orthogonalLoop=1;jettySize=auto;html=1;entryX=0.5;entryY=0;entryDx=0;entryDy=0;" edge="1" parent="WIyWlLk6GJQsqaUBKTNV-1" source="1DegyCjumlG17n1cPVI7-26" target="1DegyCjumlG17n1cPVI7-26">
          <mxGeometry relative="1" as="geometry" />
        </mxCell>
        <mxCell id="1DegyCjumlG17n1cPVI7-33" value="req.UseridList.len &amp;gt; 0" style="rhombus;whiteSpace=wrap;html=1;" vertex="1" parent="WIyWlLk6GJQsqaUBKTNV-1">
          <mxGeometry x="535" y="640" width="170" height="110" as="geometry" />
        </mxCell>
        <mxCell id="1DegyCjumlG17n1cPVI7-47" value="将查询 req.userids 加入到&amp;nbsp; userIds 中" style="rounded=1;whiteSpace=wrap;html=1;" vertex="1" parent="WIyWlLk6GJQsqaUBKTNV-1">
          <mxGeometry x="760" y="665" width="120" height="60" as="geometry" />
        </mxCell>
        <mxCell id="1DegyCjumlG17n1cPVI7-49" value="" style="endArrow=classic;html=1;rounded=0;exitX=0.5;exitY=1;exitDx=0;exitDy=0;" edge="1" parent="WIyWlLk6GJQsqaUBKTNV-1" source="1DegyCjumlG17n1cPVI7-33">
          <mxGeometry width="50" height="50" relative="1" as="geometry">
            <mxPoint x="610" y="780" as="sourcePoint" />
            <mxPoint x="620" y="800" as="targetPoint" />
          </mxGeometry>
        </mxCell>
        <mxCell id="1DegyCjumlG17n1cPVI7-51" value="Yes" style="edgeStyle=orthogonalEdgeStyle;rounded=0;html=1;jettySize=auto;orthogonalLoop=1;fontSize=11;endArrow=block;endFill=0;endSize=8;strokeWidth=1;shadow=0;labelBackgroundColor=none;entryX=0;entryY=0.5;entryDx=0;entryDy=0;exitX=1;exitY=0.5;exitDx=0;exitDy=0;" edge="1" parent="WIyWlLk6GJQsqaUBKTNV-1" source="1DegyCjumlG17n1cPVI7-33" target="1DegyCjumlG17n1cPVI7-47">
          <mxGeometry x="0.0588" y="-10" relative="1" as="geometry">
            <mxPoint as="offset" />
            <mxPoint x="743" y="640" as="sourcePoint" />
            <mxPoint x="700" y="640" as="targetPoint" />
          </mxGeometry>
        </mxCell>
        <mxCell id="1DegyCjumlG17n1cPVI7-52" value="" style="endArrow=classic;html=1;rounded=0;exitX=0.478;exitY=1.041;exitDx=0;exitDy=0;exitPerimeter=0;" edge="1" parent="WIyWlLk6GJQsqaUBKTNV-1" source="1DegyCjumlG17n1cPVI7-47">
          <mxGeometry width="50" height="50" relative="1" as="geometry">
            <mxPoint x="690" y="690" as="sourcePoint" />
            <mxPoint x="620" y="770" as="targetPoint" />
          </mxGeometry>
        </mxCell>
        <mxCell id="1DegyCjumlG17n1cPVI7-53" value="c.query&lt;br&gt;type 0 1 -1" style="rounded=0;whiteSpace=wrap;html=1;" vertex="1" parent="WIyWlLk6GJQsqaUBKTNV-1">
          <mxGeometry x="560" y="-40" width="120" height="60" as="geometry" />
        </mxCell>
        <mxCell id="1DegyCjumlG17n1cPVI7-54" value="req.Type 为 0 1" style="rhombus;whiteSpace=wrap;html=1;" vertex="1" parent="WIyWlLk6GJQsqaUBKTNV-1">
          <mxGeometry x="515" y="800" width="210" height="110" as="geometry" />
        </mxCell>
        <mxCell id="1DegyCjumlG17n1cPVI7-57" value="根据请求参数&lt;br&gt;req.OfficialGroup&amp;nbsp; 官方群&lt;div&gt;req.UserGroupId 分组&lt;/div&gt;&lt;div&gt;req.FollowUserid 跟进用户的id&amp;nbsp;&lt;br&gt;req.QwGroupId&amp;nbsp; &amp;nbsp;企业微信群&lt;/div&gt;&lt;div&gt;收集userids&amp;nbsp;&amp;nbsp;&lt;br&gt;&lt;br&gt;&lt;/div&gt;&lt;div&gt;返回 userids&lt;br&gt;userIds = append(userIds, uid)&lt;/div&gt;" style="rounded=1;whiteSpace=wrap;html=1;" vertex="1" parent="WIyWlLk6GJQsqaUBKTNV-1">
          <mxGeometry x="827" y="771.25" width="330" height="167.5" as="geometry" />
        </mxCell>
        <mxCell id="1DegyCjumlG17n1cPVI7-59" style="edgeStyle=none;rounded=0;orthogonalLoop=1;jettySize=auto;html=1;entryX=0;entryY=0.5;entryDx=0;entryDy=0;" edge="1" parent="WIyWlLk6GJQsqaUBKTNV-1" source="1DegyCjumlG17n1cPVI7-57" target="1DegyCjumlG17n1cPVI7-57">
          <mxGeometry relative="1" as="geometry" />
        </mxCell>
        <mxCell id="1DegyCjumlG17n1cPVI7-61" value="" style="endArrow=classic;html=1;rounded=0;exitX=0.5;exitY=1;exitDx=0;exitDy=0;" edge="1" parent="WIyWlLk6GJQsqaUBKTNV-1">
          <mxGeometry width="50" height="50" relative="1" as="geometry">
            <mxPoint x="619.77" y="910" as="sourcePoint" />
            <mxPoint x="619.926595744681" y="1120" as="targetPoint" />
            <Array as="points">
              <mxPoint x="619.77" y="960" />
            </Array>
          </mxGeometry>
        </mxCell>
        <mxCell id="1DegyCjumlG17n1cPVI7-63" value="No" style="edgeStyle=orthogonalEdgeStyle;rounded=0;html=1;jettySize=auto;orthogonalLoop=1;fontSize=11;endArrow=block;endFill=0;endSize=8;strokeWidth=1;shadow=0;labelBackgroundColor=none;entryX=0;entryY=0.5;entryDx=0;entryDy=0;" edge="1" parent="WIyWlLk6GJQsqaUBKTNV-1" source="1DegyCjumlG17n1cPVI7-54" target="1DegyCjumlG17n1cPVI7-57">
          <mxGeometry x="0.0588" y="10" relative="1" as="geometry">
            <mxPoint as="offset" />
            <mxPoint x="725.5" y="855" as="sourcePoint" />
            <mxPoint x="767" y="855" as="targetPoint" />
          </mxGeometry>
        </mxCell>
        <mxCell id="1DegyCjumlG17n1cPVI7-64" value="" style="endArrow=classic;html=1;rounded=0;exitX=0.5;exitY=1;exitDx=0;exitDy=0;" edge="1" parent="WIyWlLk6GJQsqaUBKTNV-1" source="1DegyCjumlG17n1cPVI7-57">
          <mxGeometry width="50" height="50" relative="1" as="geometry">
            <mxPoint x="950" y="917.5" as="sourcePoint" />
            <mxPoint x="620" y="960" as="targetPoint" />
          </mxGeometry>
        </mxCell>
        <mxCell id="1DegyCjumlG17n1cPVI7-67" value="如果 userids.len &amp;gt; 0&amp;nbsp;&lt;div&gt;就对其去重&lt;/div&gt;&lt;div&gt;然后将userids 从新赋值给req.UseridsList&lt;/div&gt;" style="rounded=0;whiteSpace=wrap;html=1;" vertex="1" parent="WIyWlLk6GJQsqaUBKTNV-1">
          <mxGeometry x="630" y="980" width="230" height="60" as="geometry" />
        </mxCell>
        <mxCell id="1DegyCjumlG17n1cPVI7-75" value="" style="edgeStyle=none;rounded=0;orthogonalLoop=1;jettySize=auto;html=1;" edge="1" parent="WIyWlLk6GJQsqaUBKTNV-1" source="1DegyCjumlG17n1cPVI7-69" target="1DegyCjumlG17n1cPVI7-72">
          <mxGeometry relative="1" as="geometry" />
        </mxCell>
        <mxCell id="1DegyCjumlG17n1cPVI7-76" value="" style="edgeStyle=none;rounded=0;orthogonalLoop=1;jettySize=auto;html=1;" edge="1" parent="WIyWlLk6GJQsqaUBKTNV-1" source="1DegyCjumlG17n1cPVI7-69" target="1DegyCjumlG17n1cPVI7-73">
          <mxGeometry relative="1" as="geometry" />
        </mxCell>
        <mxCell id="1DegyCjumlG17n1cPVI7-69" value="req.Type(0 1 -1 -2)" style="rhombus;whiteSpace=wrap;html=1;" vertex="1" parent="WIyWlLk6GJQsqaUBKTNV-1">
          <mxGeometry x="493.75" y="1100" width="252.5" height="120" as="geometry" />
        </mxCell>
        <mxCell id="1DegyCjumlG17n1cPVI7-70" value="" style="endArrow=classic;html=1;rounded=0;exitX=0.5;exitY=1;exitDx=0;exitDy=0;" edge="1" parent="WIyWlLk6GJQsqaUBKTNV-1" target="1DegyCjumlG17n1cPVI7-74">
          <mxGeometry width="50" height="50" relative="1" as="geometry">
            <mxPoint x="620" y="1220" as="sourcePoint" />
            <mxPoint x="620" y="1340" as="targetPoint" />
          </mxGeometry>
        </mxCell>
        <mxCell id="1DegyCjumlG17n1cPVI7-72" value="&lt;div&gt;反查数据(最后成交, 最后推广)&lt;/div&gt;&lt;div&gt;&lt;span style=&quot;white-space: normal;&quot;&gt;&lt;span style=&quot;white-space:pre&quot;&gt;&#x9;&#x9;&lt;/span&gt;ReverseCheckGoodsUserData&lt;/span&gt;&lt;/div&gt;&lt;div&gt;&lt;span style=&quot;white-space: normal;&quot;&gt;&lt;span style=&quot;white-space:pre&quot;&gt;&#x9;&#x9;&lt;/span&gt;(req.GoodsSignLasts, req.CateNames, userIds)&lt;/span&gt;&lt;/div&gt;" style="rounded=0;whiteSpace=wrap;html=1;" vertex="1" parent="WIyWlLk6GJQsqaUBKTNV-1">
          <mxGeometry x="120" y="1130" width="310" height="60" as="geometry" />
        </mxCell>
        <mxCell id="1DegyCjumlG17n1cPVI7-73" value="查询商品数据&lt;div&gt;GetMatchGoodsByGoods(req)&lt;/div&gt;" style="rounded=0;whiteSpace=wrap;html=1;" vertex="1" parent="WIyWlLk6GJQsqaUBKTNV-1">
          <mxGeometry x="1331" y="1130" width="520" height="60" as="geometry" />
        </mxCell>
        <mxCell id="1DegyCjumlG17n1cPVI7-74" value="&lt;div&gt;查询订单数据&lt;div&gt;GetUserAnalysisDataByModel&lt;/div&gt;&lt;div&gt;(userIds, req.Type, req.DayType)&lt;/div&gt;&lt;/div&gt;" style="rounded=0;whiteSpace=wrap;html=1;" vertex="1" parent="WIyWlLk6GJQsqaUBKTNV-1">
          <mxGeometry x="455" y="1310" width="330" height="70" as="geometry" />
        </mxCell>
        <mxCell id="1DegyCjumlG17n1cPVI7-77" value="-2" style="rounded=0;whiteSpace=wrap;html=1;" vertex="1" parent="WIyWlLk6GJQsqaUBKTNV-1">
          <mxGeometry x="440" y="1130" width="40" height="20" as="geometry" />
        </mxCell>
        <mxCell id="1DegyCjumlG17n1cPVI7-78" style="edgeStyle=none;rounded=0;orthogonalLoop=1;jettySize=auto;html=1;exitX=1;exitY=0.5;exitDx=0;exitDy=0;" edge="1" parent="WIyWlLk6GJQsqaUBKTNV-1" source="1DegyCjumlG17n1cPVI7-77" target="1DegyCjumlG17n1cPVI7-77">
          <mxGeometry relative="1" as="geometry" />
        </mxCell>
        <mxCell id="1DegyCjumlG17n1cPVI7-79" style="edgeStyle=none;rounded=0;orthogonalLoop=1;jettySize=auto;html=1;exitX=1;exitY=0.5;exitDx=0;exitDy=0;" edge="1" parent="WIyWlLk6GJQsqaUBKTNV-1" source="1DegyCjumlG17n1cPVI7-77" target="1DegyCjumlG17n1cPVI7-77">
          <mxGeometry relative="1" as="geometry" />
        </mxCell>
        <mxCell id="1DegyCjumlG17n1cPVI7-80" value="0 1" style="rounded=0;whiteSpace=wrap;html=1;" vertex="1" parent="WIyWlLk6GJQsqaUBKTNV-1">
          <mxGeometry x="630" y="1240" width="40" height="40" as="geometry" />
        </mxCell>
        <mxCell id="1DegyCjumlG17n1cPVI7-81" value="-1" style="rounded=0;whiteSpace=wrap;html=1;" vertex="1" parent="WIyWlLk6GJQsqaUBKTNV-1">
          <mxGeometry x="850" y="1130" width="40" height="20" as="geometry" />
        </mxCell>
        <mxCell id="1DegyCjumlG17n1cPVI7-84" value="&lt;div&gt;模型 2&lt;br&gt;获取大盘数据&lt;/div&gt;calculationScoreByMatchGoods&lt;div&gt;(2, req.ComNum, req.ComCoe, req)&lt;/div&gt;" style="rounded=1;whiteSpace=wrap;html=1;" vertex="1" parent="WIyWlLk6GJQsqaUBKTNV-1">
          <mxGeometry x="1120" y="1340" width="320" height="100" as="geometry" />
        </mxCell>
        <mxCell id="1DegyCjumlG17n1cPVI7-85" value="&lt;div&gt;模型0&lt;/div&gt;&lt;div&gt;获取成交数据&lt;/div&gt;calculationScoreByMatchGoods&lt;div&gt;(0, req.DealNum, req.DealCoe, req)&lt;/div&gt;" style="rounded=1;whiteSpace=wrap;html=1;" vertex="1" parent="WIyWlLk6GJQsqaUBKTNV-1">
          <mxGeometry x="1440" y="1340" width="320" height="100" as="geometry" />
        </mxCell>
        <mxCell id="1DegyCjumlG17n1cPVI7-86" value="&lt;div&gt;model 1&lt;/div&gt;&lt;div&gt;获取行为数据&lt;/div&gt;calculationScoreByMatchGoods&lt;div&gt;(1, req.BehaviorNum, req.BehaviorCoe, req)&lt;/div&gt;" style="rounded=1;whiteSpace=wrap;html=1;" vertex="1" parent="WIyWlLk6GJQsqaUBKTNV-1">
          <mxGeometry x="1760" y="1340" width="320" height="100" as="geometry" />
        </mxCell>
        <mxCell id="1DegyCjumlG17n1cPVI7-87" value="" style="endArrow=classic;html=1;rounded=0;exitX=0.5;exitY=1;exitDx=0;exitDy=0;" edge="1" parent="WIyWlLk6GJQsqaUBKTNV-1">
          <mxGeometry width="50" height="50" relative="1" as="geometry">
            <mxPoint x="1401" y="1190" as="sourcePoint" />
            <mxPoint x="1401" y="1340" as="targetPoint" />
          </mxGeometry>
        </mxCell>
        <mxCell id="1DegyCjumlG17n1cPVI7-89" style="edgeStyle=none;rounded=0;orthogonalLoop=1;jettySize=auto;html=1;entryX=0.5;entryY=0;entryDx=0;entryDy=0;" edge="1" parent="WIyWlLk6GJQsqaUBKTNV-1" source="1DegyCjumlG17n1cPVI7-85" target="1DegyCjumlG17n1cPVI7-85">
          <mxGeometry relative="1" as="geometry" />
        </mxCell>
        <mxCell id="1DegyCjumlG17n1cPVI7-90" value="" style="endArrow=classic;html=1;rounded=0;exitX=0.5;exitY=1;exitDx=0;exitDy=0;entryX=0.126;entryY=0.033;entryDx=0;entryDy=0;entryPerimeter=0;" edge="1" parent="WIyWlLk6GJQsqaUBKTNV-1" target="1DegyCjumlG17n1cPVI7-86">
          <mxGeometry width="50" height="50" relative="1" as="geometry">
            <mxPoint x="1801" y="1190" as="sourcePoint" />
            <mxPoint x="1839" y="1343" as="targetPoint" />
          </mxGeometry>
        </mxCell>
        <mxCell id="1DegyCjumlG17n1cPVI7-94" value="&lt;div&gt;如果&lt;/div&gt;req.NoMartetData&lt;div&gt;为空&lt;/div&gt;" style="rounded=0;whiteSpace=wrap;html=1;" vertex="1" parent="WIyWlLk6GJQsqaUBKTNV-1">
          <mxGeometry x="1280" y="1200" width="110" height="110" as="geometry" />
        </mxCell>
        <mxCell id="1DegyCjumlG17n1cPVI7-95" value="" style="endArrow=classic;html=1;rounded=0;exitX=0.599;exitY=1.049;exitDx=0;exitDy=0;exitPerimeter=0;entryX=0.63;entryY=0.011;entryDx=0;entryDy=0;entryPerimeter=0;" edge="1" parent="WIyWlLk6GJQsqaUBKTNV-1" source="1DegyCjumlG17n1cPVI7-73" target="1DegyCjumlG17n1cPVI7-85">
          <mxGeometry width="50" height="50" relative="1" as="geometry">
            <mxPoint x="1641" y="1200" as="sourcePoint" />
            <mxPoint x="1642" y="1320" as="targetPoint" />
          </mxGeometry>
        </mxCell>
        <mxCell id="1DegyCjumlG17n1cPVI7-99" value="" style="shape=link;html=1;rounded=0;" edge="1" parent="WIyWlLk6GJQsqaUBKTNV-1">
          <mxGeometry width="100" relative="1" as="geometry">
            <mxPoint x="1400" y="1280" as="sourcePoint" />
            <mxPoint x="1800" y="1280" as="targetPoint" />
          </mxGeometry>
        </mxCell>
        <mxCell id="1DegyCjumlG17n1cPVI7-100" value="并发" style="text;html=1;align=center;verticalAlign=middle;whiteSpace=wrap;rounded=0;" vertex="1" parent="WIyWlLk6GJQsqaUBKTNV-1">
          <mxGeometry x="1520" y="1250" width="60" height="30" as="geometry" />
        </mxCell>
        <mxCell id="1DegyCjumlG17n1cPVI7-101" value="&lt;div&gt;获取7天的大盘数据&lt;/div&gt;&amp;nbsp;(GoodsService{}).&lt;div&gt;getComprehensiveMarketData(req.ComDay)&lt;/div&gt;" style="rounded=1;whiteSpace=wrap;html=1;" vertex="1" parent="WIyWlLk6GJQsqaUBKTNV-1">
          <mxGeometry x="1040" y="1520" width="360" height="60" as="geometry" />
        </mxCell>
        <mxCell id="1DegyCjumlG17n1cPVI7-102" value="(GoodsService{}).&lt;div&gt;GetUserAnalysisDataByModel(req.UseridList, model, req.DayType)&lt;/div&gt;" style="rounded=1;whiteSpace=wrap;html=1;" vertex="1" parent="WIyWlLk6GJQsqaUBKTNV-1">
          <mxGeometry x="1760" y="1520" width="440" height="60" as="geometry" />
        </mxCell>
        <mxCell id="1DegyCjumlG17n1cPVI7-103" value="(GoodsService{}).&lt;div&gt;GetUserAnalysisDataByModel(req.UseridList, model, req.DayType)&lt;/div&gt;" style="rounded=1;whiteSpace=wrap;html=1;" vertex="1" parent="WIyWlLk6GJQsqaUBKTNV-1">
          <mxGeometry x="1400" y="1520" width="360" height="60" as="geometry" />
        </mxCell>
        <mxCell id="1DegyCjumlG17n1cPVI7-106" value="" style="endArrow=classic;html=1;rounded=0;exitX=0.5;exitY=1;exitDx=0;exitDy=0;" edge="1" parent="WIyWlLk6GJQsqaUBKTNV-1" source="1DegyCjumlG17n1cPVI7-84">
          <mxGeometry width="50" height="50" relative="1" as="geometry">
            <mxPoint x="1280" y="1440" as="sourcePoint" />
            <mxPoint x="1280" y="1520" as="targetPoint" />
          </mxGeometry>
        </mxCell>
        <mxCell id="1DegyCjumlG17n1cPVI7-107" value="" style="endArrow=classic;html=1;rounded=0;exitX=0.5;exitY=1;exitDx=0;exitDy=0;" edge="1" parent="WIyWlLk6GJQsqaUBKTNV-1">
          <mxGeometry width="50" height="50" relative="1" as="geometry">
            <mxPoint x="1600" y="1440" as="sourcePoint" />
            <mxPoint x="1600" y="1520" as="targetPoint" />
          </mxGeometry>
        </mxCell>
        <mxCell id="1DegyCjumlG17n1cPVI7-108" value="" style="endArrow=classic;html=1;rounded=0;exitX=0.5;exitY=1;exitDx=0;exitDy=0;" edge="1" parent="WIyWlLk6GJQsqaUBKTNV-1">
          <mxGeometry width="50" height="50" relative="1" as="geometry">
            <mxPoint x="1920" y="1440" as="sourcePoint" />
            <mxPoint x="1920" y="1520" as="targetPoint" />
          </mxGeometry>
        </mxCell>
        <mxCell id="1DegyCjumlG17n1cPVI7-110" value="" style="endArrow=classic;html=1;rounded=0;exitX=0.5;exitY=1;exitDx=0;exitDy=0;" edge="1" parent="WIyWlLk6GJQsqaUBKTNV-1" source="1DegyCjumlG17n1cPVI7-101">
          <mxGeometry width="50" height="50" relative="1" as="geometry">
            <mxPoint x="1280" y="1600" as="sourcePoint" />
            <mxPoint x="1220" y="1640" as="targetPoint" />
          </mxGeometry>
        </mxCell>
        <mxCell id="1DegyCjumlG17n1cPVI7-115" value="根据请求类型(post, get 绑定参数)" style="rounded=1;whiteSpace=wrap;html=1;" vertex="1" parent="WIyWlLk6GJQsqaUBKTNV-1">
          <mxGeometry x="520" y="140" width="200" height="100" as="geometry" />
        </mxCell>
        <mxCell id="1DegyCjumlG17n1cPVI7-116" value="使用CheckCache 先查缓存" style="rounded=1;whiteSpace=wrap;html=1;" vertex="1" parent="WIyWlLk6GJQsqaUBKTNV-1">
          <mxGeometry x="1120" y="1640" width="200" height="80" as="geometry" />
        </mxCell>
      </root>
    </mxGraphModel>
  </diagram>
</mxfile>
